solid OpenSCAD_Model
  facet normal -1 0 0
    outer loop
      vertex -1.6 -0.8 1.1
      vertex -1.6 0.8 1.1
      vertex -1.6 -0.8 1.11022e-016
    endloop
  endfacet
  facet normal -1 0 0
    outer loop
      vertex -1.6 -0.8 1.11022e-016
      vertex -1.6 0.8 1.1
      vertex -1.6 0.8 1.11022e-016
    endloop
  endfacet
  facet normal 0 0 1
    outer loop
      vertex -1.6 -0.8 1.1
      vertex 1.6 -0.8 1.1
      vertex 1.6 0.8 1.1
    endloop
  endfacet
  facet normal 0 0 1
    outer loop
      vertex -1.6 0.8 1.1
      vertex -1.6 -0.8 1.1
      vertex 1.6 0.8 1.1
    endloop
  endfacet
  facet normal 0 -1 0
    outer loop
      vertex -1.6 -0.8 1.11022e-016
      vertex 1.6 -0.8 1.11022e-016
      vertex 1.6 -0.8 1.1
    endloop
  endfacet
  facet normal 0 -1 0
    outer loop
      vertex -1.6 -0.8 1.1
      vertex -1.6 -0.8 1.11022e-016
      vertex 1.6 -0.8 1.1
    endloop
  endfacet
  facet normal 0 0 -1
    outer loop
      vertex -1.6 0.8 1.11022e-016
      vertex 1.6 0.8 1.11022e-016
      vertex -1.6 -0.8 1.11022e-016
    endloop
  endfacet
  facet normal 0 0 -1
    outer loop
      vertex -1.6 -0.8 1.11022e-016
      vertex 1.6 0.8 1.11022e-016
      vertex 1.6 -0.8 1.11022e-016
    endloop
  endfacet
  facet normal 0 1 0
    outer loop
      vertex -1.6 0.8 1.1
      vertex 1.6 0.8 1.1
      vertex -1.6 0.8 1.11022e-016
    endloop
  endfacet
  facet normal 0 1 0
    outer loop
      vertex -1.6 0.8 1.11022e-016
      vertex 1.6 0.8 1.1
      vertex 1.6 0.8 1.11022e-016
    endloop
  endfacet
  facet normal 1 0 0
    outer loop
      vertex 1.6 -0.8 1.11022e-016
      vertex 1.6 0.8 1.11022e-016
      vertex 1.6 0.8 1.1
    endloop
  endfacet
  facet normal 1 0 0
    outer loop
      vertex 1.6 -0.8 1.1
      vertex 1.6 -0.8 1.11022e-016
      vertex 1.6 0.8 1.1
    endloop
  endfacet
endsolid OpenSCAD_Model
