solid OpenSCAD_Model
  facet normal -1 0 0
    outer loop
      vertex -7.76 -0.925 1.14
      vertex -7.76 0.925 1.14
      vertex -7.76 -0.925 1.11022e-016
    endloop
  endfacet
  facet normal -1 0 0
    outer loop
      vertex -7.76 -0.925 1.11022e-016
      vertex -7.76 0.925 1.14
      vertex -7.76 0.925 1.11022e-016
    endloop
  endfacet
  facet normal 0 0 1
    outer loop
      vertex -7.76 -0.925 1.14
      vertex 7.76 -0.925 1.14
      vertex 7.76 0.925 1.14
    endloop
  endfacet
  facet normal 0 0 1
    outer loop
      vertex -7.76 0.925 1.14
      vertex -7.76 -0.925 1.14
      vertex 7.76 0.925 1.14
    endloop
  endfacet
  facet normal 0 -1 0
    outer loop
      vertex -7.76 -0.925 1.11022e-016
      vertex 7.76 -0.925 1.11022e-016
      vertex 7.76 -0.925 1.14
    endloop
  endfacet
  facet normal 0 -1 0
    outer loop
      vertex -7.76 -0.925 1.14
      vertex -7.76 -0.925 1.11022e-016
      vertex 7.76 -0.925 1.14
    endloop
  endfacet
  facet normal 0 0 -1
    outer loop
      vertex -7.76 0.925 1.11022e-016
      vertex 7.76 0.925 1.11022e-016
      vertex -7.76 -0.925 1.11022e-016
    endloop
  endfacet
  facet normal 0 0 -1
    outer loop
      vertex -7.76 -0.925 1.11022e-016
      vertex 7.76 0.925 1.11022e-016
      vertex 7.76 -0.925 1.11022e-016
    endloop
  endfacet
  facet normal 0 1 0
    outer loop
      vertex -7.76 0.925 1.14
      vertex 7.76 0.925 1.14
      vertex -7.76 0.925 1.11022e-016
    endloop
  endfacet
  facet normal 0 1 0
    outer loop
      vertex -7.76 0.925 1.11022e-016
      vertex 7.76 0.925 1.14
      vertex 7.76 0.925 1.11022e-016
    endloop
  endfacet
  facet normal 1 0 0
    outer loop
      vertex 7.76 -0.925 1.11022e-016
      vertex 7.76 0.925 1.11022e-016
      vertex 7.76 0.925 1.14
    endloop
  endfacet
  facet normal 1 0 0
    outer loop
      vertex 7.76 -0.925 1.14
      vertex 7.76 -0.925 1.11022e-016
      vertex 7.76 0.925 1.14
    endloop
  endfacet
endsolid OpenSCAD_Model
