solid OpenSCAD_Model
  facet normal -1 0 0
    outer loop
      vertex -0.75 -0.5 0.6
      vertex -0.75 0.5 0.6
      vertex -0.75 -0.5 5.55112e-017
    endloop
  endfacet
  facet normal -1 0 0
    outer loop
      vertex -0.75 -0.5 5.55112e-017
      vertex -0.75 0.5 0.6
      vertex -0.75 0.5 5.55112e-017
    endloop
  endfacet
  facet normal 0 0 1
    outer loop
      vertex -0.75 -0.5 0.6
      vertex 0.75 -0.5 0.6
      vertex 0.75 0.5 0.6
    endloop
  endfacet
  facet normal 0 0 1
    outer loop
      vertex -0.75 0.5 0.6
      vertex -0.75 -0.5 0.6
      vertex 0.75 0.5 0.6
    endloop
  endfacet
  facet normal 0 -1 0
    outer loop
      vertex -0.75 -0.5 5.55112e-017
      vertex 0.75 -0.5 5.55112e-017
      vertex 0.75 -0.5 0.6
    endloop
  endfacet
  facet normal 0 -1 0
    outer loop
      vertex -0.75 -0.5 0.6
      vertex -0.75 -0.5 5.55112e-017
      vertex 0.75 -0.5 0.6
    endloop
  endfacet
  facet normal 0 0 -1
    outer loop
      vertex -0.75 0.5 5.55112e-017
      vertex 0.75 0.5 5.55112e-017
      vertex -0.75 -0.5 5.55112e-017
    endloop
  endfacet
  facet normal 0 0 -1
    outer loop
      vertex -0.75 -0.5 5.55112e-017
      vertex 0.75 0.5 5.55112e-017
      vertex 0.75 -0.5 5.55112e-017
    endloop
  endfacet
  facet normal 0 1 0
    outer loop
      vertex -0.75 0.5 0.6
      vertex 0.75 0.5 0.6
      vertex -0.75 0.5 5.55112e-017
    endloop
  endfacet
  facet normal 0 1 0
    outer loop
      vertex -0.75 0.5 5.55112e-017
      vertex 0.75 0.5 0.6
      vertex 0.75 0.5 5.55112e-017
    endloop
  endfacet
  facet normal 1 0 0
    outer loop
      vertex 0.75 -0.5 5.55112e-017
      vertex 0.75 0.5 5.55112e-017
      vertex 0.75 0.5 0.6
    endloop
  endfacet
  facet normal 1 0 0
    outer loop
      vertex 0.75 -0.5 0.6
      vertex 0.75 -0.5 5.55112e-017
      vertex 0.75 0.5 0.6
    endloop
  endfacet
endsolid OpenSCAD_Model
