solid OpenSCAD_Model
  facet normal -1 0 0
    outer loop
      vertex -1.5 -1.25 0
      vertex -1.5 -1.25 1.2
      vertex -1.5 1.25 0
    endloop
  endfacet
  facet normal -1 0 0
    outer loop
      vertex -1.5 1.25 0
      vertex -1.5 -1.25 1.2
      vertex -1.5 1.25 1.2
    endloop
  endfacet
  facet normal 0 -1 0
    outer loop
      vertex -1.5 -1.25 1.2
      vertex -1.5 -1.25 0
      vertex 1.5 -1.25 0
    endloop
  endfacet
  facet normal 0 -1 0
    outer loop
      vertex 1.5 -1.25 1.2
      vertex -1.5 -1.25 1.2
      vertex 1.5 -1.25 0
    endloop
  endfacet
  facet normal 0 0 -1
    outer loop
      vertex -1.5 -1.25 0
      vertex -1.5 1.25 0
      vertex 1.5 -1.25 0
    endloop
  endfacet
  facet normal 0 0 -1
    outer loop
      vertex 1.5 -1.25 0
      vertex -1.5 1.25 0
      vertex 1.5 1.25 0
    endloop
  endfacet
  facet normal 0 1 0
    outer loop
      vertex -0.85 1.25 1.1
      vertex -1.5 1.25 1.2
      vertex 1.5 1.25 1.2
    endloop
  endfacet
  facet normal 0 1 0
    outer loop
      vertex 0.85 1.25 1.1
      vertex -0.85 1.25 1.1
      vertex 1.5 1.25 1.2
    endloop
  endfacet
  facet normal 0 1 0
    outer loop
      vertex -1.5 1.25 0
      vertex -1.5 1.25 1.2
      vertex -0.85 1.25 0.1
    endloop
  endfacet
  facet normal 0 1 0
    outer loop
      vertex -1.5 1.25 0
      vertex -0.85 1.25 0.1
      vertex 1.5 1.25 0
    endloop
  endfacet
  facet normal 0 1 0
    outer loop
      vertex 0.85 1.25 1.1
      vertex 1.5 1.25 0
      vertex 0.85 1.25 0.1
    endloop
  endfacet
  facet normal 0 1 0
    outer loop
      vertex -0.85 1.25 0.1
      vertex 0.85 1.25 0.1
      vertex 1.5 1.25 0
    endloop
  endfacet
  facet normal 0 1 0
    outer loop
      vertex 1.5 1.25 0
      vertex 0.85 1.25 1.1
      vertex 1.5 1.25 1.2
    endloop
  endfacet
  facet normal 0 1 0
    outer loop
      vertex -0.85 1.25 0.1
      vertex -1.5 1.25 1.2
      vertex -0.85 1.25 1.1
    endloop
  endfacet
  facet normal 0 0 1
    outer loop
      vertex -1.5 1.25 1.2
      vertex -1.5 -1.25 1.2
      vertex 1.5 -1.25 1.2
    endloop
  endfacet
  facet normal 0 0 1
    outer loop
      vertex 1.5 1.25 1.2
      vertex -1.5 1.25 1.2
      vertex 1.5 -1.25 1.2
    endloop
  endfacet
  facet normal 1 0 0
    outer loop
      vertex 1.5 -1.25 1.2
      vertex 1.5 -1.25 0
      vertex 1.5 1.25 0
    endloop
  endfacet
  facet normal 1 0 0
    outer loop
      vertex 1.5 1.25 1.2
      vertex 1.5 -1.25 1.2
      vertex 1.5 1.25 0
    endloop
  endfacet
  facet normal -1 0 0
    outer loop
      vertex -0.85 1.25 0.1
      vertex -0.85 1.25 1.1
      vertex -0.85 1.6 0.1
    endloop
  endfacet
  facet normal -1 0 0
    outer loop
      vertex -0.85 1.6 0.1
      vertex -0.85 1.25 1.1
      vertex -0.85 1.6 1.1
    endloop
  endfacet
  facet normal 0 0 1
    outer loop
      vertex -0.85 1.6 1.1
      vertex -0.85 1.25 1.1
      vertex 0.85 1.25 1.1
    endloop
  endfacet
  facet normal 0 0 1
    outer loop
      vertex -0.45 1.6 1.1
      vertex -0.85 1.6 1.1
      vertex 0.85 1.25 1.1
    endloop
  endfacet
  facet normal 0 0 1
    outer loop
      vertex 0.45 1.6 1.1
      vertex -0.45 1.6 1.1
      vertex 0.85 1.25 1.1
    endloop
  endfacet
  facet normal 0 0 1
    outer loop
      vertex 0.85 1.6 1.1
      vertex 0.45 1.6 1.1
      vertex 0.85 1.25 1.1
    endloop
  endfacet
  facet normal 0 0 1
    outer loop
      vertex 0.45 1.85 1.1
      vertex -0.45 1.6 1.1
      vertex 0.45 1.6 1.1
    endloop
  endfacet
  facet normal 0 0 1
    outer loop
      vertex -0.45 1.85 1.1
      vertex -0.45 1.6 1.1
      vertex 0.45 1.85 1.1
    endloop
  endfacet
  facet normal 1 0 0
    outer loop
      vertex 0.85 1.25 1.1
      vertex 0.85 1.25 0.1
      vertex 0.85 1.6 0.1
    endloop
  endfacet
  facet normal 1 0 0
    outer loop
      vertex 0.85 1.6 1.1
      vertex 0.85 1.25 1.1
      vertex 0.85 1.6 0.1
    endloop
  endfacet
  facet normal 0 0 -1
    outer loop
      vertex -0.85 1.25 0.1
      vertex -0.85 1.6 0.1
      vertex 0.85 1.25 0.1
    endloop
  endfacet
  facet normal 0 0 -1
    outer loop
      vertex 0.85 1.25 0.1
      vertex -0.85 1.6 0.1
      vertex -0.45 1.6 0.1
    endloop
  endfacet
  facet normal 0 0 -1
    outer loop
      vertex 0.85 1.25 0.1
      vertex -0.45 1.6 0.1
      vertex -0.45 1.85 0.1
    endloop
  endfacet
  facet normal 0 0 -1
    outer loop
      vertex 0.45 1.6 0.1
      vertex -0.45 1.85 0.1
      vertex 0.45 1.85 0.1
    endloop
  endfacet
  facet normal 0 0 -1
    outer loop
      vertex 0.85 1.25 0.1
      vertex -0.45 1.85 0.1
      vertex 0.45 1.6 0.1
    endloop
  endfacet
  facet normal 0 0 -1
    outer loop
      vertex 0.85 1.6 0.1
      vertex 0.85 1.25 0.1
      vertex 0.45 1.6 0.1
    endloop
  endfacet
  facet normal 0 1 0
    outer loop
      vertex -0.85 1.6 0.1
      vertex -0.85 1.6 1.1
      vertex -0.45 1.6 0.1
    endloop
  endfacet
  facet normal 0 1 0
    outer loop
      vertex -0.45 1.6 0.1
      vertex -0.85 1.6 1.1
      vertex -0.45 1.6 1.1
    endloop
  endfacet
  facet normal -1 0 0
    outer loop
      vertex -0.45 1.6 0.1
      vertex -0.45 1.6 1.1
      vertex -0.45 1.85 0.1
    endloop
  endfacet
  facet normal -1 0 0
    outer loop
      vertex -0.45 1.85 0.1
      vertex -0.45 1.6 1.1
      vertex -0.45 1.85 1.1
    endloop
  endfacet
  facet normal 0 1 0
    outer loop
      vertex -0.45 1.85 0.1
      vertex -0.45 1.85 1.1
      vertex 0.45 1.85 0.1
    endloop
  endfacet
  facet normal 0 1 0
    outer loop
      vertex 0.45 1.85 0.1
      vertex -0.45 1.85 1.1
      vertex 0.45 1.85 1.1
    endloop
  endfacet
  facet normal 1 0 0
    outer loop
      vertex 0.45 1.6 1.1
      vertex 0.45 1.6 0.1
      vertex 0.45 1.85 0.1
    endloop
  endfacet
  facet normal 1 0 0
    outer loop
      vertex 0.45 1.85 1.1
      vertex 0.45 1.6 1.1
      vertex 0.45 1.85 0.1
    endloop
  endfacet
  facet normal 0 1 0
    outer loop
      vertex 0.45 1.6 0.1
      vertex 0.45 1.6 1.1
      vertex 0.85 1.6 0.1
    endloop
  endfacet
  facet normal 0 1 0
    outer loop
      vertex 0.85 1.6 0.1
      vertex 0.45 1.6 1.1
      vertex 0.85 1.6 1.1
    endloop
  endfacet
endsolid OpenSCAD_Model
