solid OpenSCAD_Model
  facet normal -1 0 0
    outer loop
      vertex -2.425 -2.9 1.5
      vertex -2.425 2.9 1.5
      vertex -2.425 -2.9 0
    endloop
  endfacet
  facet normal -1 0 0
    outer loop
      vertex -2.425 -2.9 0
      vertex -2.425 2.9 1.5
      vertex -2.425 2.9 0
    endloop
  endfacet
  facet normal 0 0 1
    outer loop
      vertex -2.425 -2.9 1.5
      vertex 2.425 -2.9 1.5
      vertex 2.425 2.9 1.5
    endloop
  endfacet
  facet normal 0 0 1
    outer loop
      vertex -2.425 2.9 1.5
      vertex -2.425 -2.9 1.5
      vertex 2.425 2.9 1.5
    endloop
  endfacet
  facet normal 0 -1 0
    outer loop
      vertex -2.425 -2.9 0
      vertex 2.425 -2.9 0
      vertex 2.425 -2.9 1.5
    endloop
  endfacet
  facet normal 0 -1 0
    outer loop
      vertex -2.425 -2.9 1.5
      vertex -2.425 -2.9 0
      vertex 2.425 -2.9 1.5
    endloop
  endfacet
  facet normal 0 0 -1
    outer loop
      vertex -2.425 2.9 0
      vertex 2.425 2.9 0
      vertex -2.425 -2.9 0
    endloop
  endfacet
  facet normal 0 0 -1
    outer loop
      vertex -2.425 -2.9 0
      vertex 2.425 2.9 0
      vertex 2.425 -2.9 0
    endloop
  endfacet
  facet normal 0 1 0
    outer loop
      vertex -2.425 2.9 1.5
      vertex 2.425 2.9 1.5
      vertex -2.425 2.9 0
    endloop
  endfacet
  facet normal 0 1 0
    outer loop
      vertex -2.425 2.9 0
      vertex 2.425 2.9 1.5
      vertex 2.425 2.9 0
    endloop
  endfacet
  facet normal 1 0 0
    outer loop
      vertex 2.425 -2.9 0
      vertex 2.425 2.9 0
      vertex 2.425 2.9 1.5
    endloop
  endfacet
  facet normal 1 0 0
    outer loop
      vertex 2.425 -2.9 1.5
      vertex 2.425 -2.9 0
      vertex 2.425 2.9 1.5
    endloop
  endfacet
endsolid OpenSCAD_Model
