solid OpenSCAD_Model
  facet normal -1 0 0
    outer loop
      vertex -1.25 -0.625 0.9
      vertex -1.25 0.625 0.9
      vertex -1.25 -0.625 5.55112e-017
    endloop
  endfacet
  facet normal -1 0 0
    outer loop
      vertex -1.25 -0.625 5.55112e-017
      vertex -1.25 0.625 0.9
      vertex -1.25 0.625 5.55112e-017
    endloop
  endfacet
  facet normal 0 0 1
    outer loop
      vertex -1.25 -0.625 0.9
      vertex 1.25 -0.625 0.9
      vertex 1.25 0.625 0.9
    endloop
  endfacet
  facet normal 0 0 1
    outer loop
      vertex -1.25 0.625 0.9
      vertex -1.25 -0.625 0.9
      vertex 1.25 0.625 0.9
    endloop
  endfacet
  facet normal 0 -1 0
    outer loop
      vertex -1.25 -0.625 5.55112e-017
      vertex 1.25 -0.625 5.55112e-017
      vertex 1.25 -0.625 0.9
    endloop
  endfacet
  facet normal 0 -1 0
    outer loop
      vertex -1.25 -0.625 0.9
      vertex -1.25 -0.625 5.55112e-017
      vertex 1.25 -0.625 0.9
    endloop
  endfacet
  facet normal 0 0 -1
    outer loop
      vertex -1.25 0.625 5.55112e-017
      vertex 1.25 0.625 5.55112e-017
      vertex -1.25 -0.625 5.55112e-017
    endloop
  endfacet
  facet normal 0 0 -1
    outer loop
      vertex -1.25 -0.625 5.55112e-017
      vertex 1.25 0.625 5.55112e-017
      vertex 1.25 -0.625 5.55112e-017
    endloop
  endfacet
  facet normal 0 1 0
    outer loop
      vertex -1.25 0.625 0.9
      vertex 1.25 0.625 0.9
      vertex -1.25 0.625 5.55112e-017
    endloop
  endfacet
  facet normal 0 1 0
    outer loop
      vertex -1.25 0.625 5.55112e-017
      vertex 1.25 0.625 0.9
      vertex 1.25 0.625 5.55112e-017
    endloop
  endfacet
  facet normal 1 0 0
    outer loop
      vertex 1.25 -0.625 5.55112e-017
      vertex 1.25 0.625 5.55112e-017
      vertex 1.25 0.625 0.9
    endloop
  endfacet
  facet normal 1 0 0
    outer loop
      vertex 1.25 -0.625 0.9
      vertex 1.25 -0.625 5.55112e-017
      vertex 1.25 0.625 0.9
    endloop
  endfacet
endsolid OpenSCAD_Model
