solid OpenSCAD_Model
  facet normal -1 0 0
    outer loop
      vertex -1.6 -1.25 0.35
      vertex -1.6 1.25 0.35
      vertex -1.6 -1.25 2.77556e-017
    endloop
  endfacet
  facet normal -1 0 0
    outer loop
      vertex -1.6 -1.25 2.77556e-017
      vertex -1.6 1.25 0.35
      vertex -1.6 1.25 2.77556e-017
    endloop
  endfacet
  facet normal 0 0 1
    outer loop
      vertex -1.6 -1.25 0.35
      vertex 1.6 -1.25 0.35
      vertex 1.6 1.25 0.35
    endloop
  endfacet
  facet normal 0 0 1
    outer loop
      vertex -1.6 1.25 0.35
      vertex -1.6 -1.25 0.35
      vertex 1.6 1.25 0.35
    endloop
  endfacet
  facet normal 0 -1 0
    outer loop
      vertex -1.6 -1.25 2.77556e-017
      vertex 1.6 -1.25 2.77556e-017
      vertex 1.6 -1.25 0.35
    endloop
  endfacet
  facet normal 0 -1 0
    outer loop
      vertex -1.6 -1.25 0.35
      vertex -1.6 -1.25 2.77556e-017
      vertex 1.6 -1.25 0.35
    endloop
  endfacet
  facet normal 0 0 -1
    outer loop
      vertex -1.6 1.25 2.77556e-017
      vertex 1.6 1.25 2.77556e-017
      vertex -1.6 -1.25 2.77556e-017
    endloop
  endfacet
  facet normal 0 0 -1
    outer loop
      vertex -1.6 -1.25 2.77556e-017
      vertex 1.6 1.25 2.77556e-017
      vertex 1.6 -1.25 2.77556e-017
    endloop
  endfacet
  facet normal 0 1 0
    outer loop
      vertex -1.6 1.25 0.35
      vertex 1.6 1.25 0.35
      vertex -1.6 1.25 2.77556e-017
    endloop
  endfacet
  facet normal 0 1 0
    outer loop
      vertex -1.6 1.25 2.77556e-017
      vertex 1.6 1.25 0.35
      vertex 1.6 1.25 2.77556e-017
    endloop
  endfacet
  facet normal 1 0 0
    outer loop
      vertex 1.6 -1.25 2.77556e-017
      vertex 1.6 1.25 2.77556e-017
      vertex 1.6 1.25 0.35
    endloop
  endfacet
  facet normal 1 0 0
    outer loop
      vertex 1.6 -1.25 0.35
      vertex 1.6 -1.25 2.77556e-017
      vertex 1.6 1.25 0.35
    endloop
  endfacet
endsolid OpenSCAD_Model
