solid OpenSCAD_Model
  facet normal -1 0 0
    outer loop
      vertex -9.95 -5.7 1.6
      vertex -9.95 5.7 1.6
      vertex -9.95 -5.7 1.11022e-016
    endloop
  endfacet
  facet normal -1 0 0
    outer loop
      vertex -9.95 -5.7 1.11022e-016
      vertex -9.95 5.7 1.6
      vertex -9.95 5.7 1.11022e-016
    endloop
  endfacet
  facet normal 0 0 1
    outer loop
      vertex -9.95 -5.7 1.6
      vertex 9.95 -5.7 1.6
      vertex 9.95 5.7 1.6
    endloop
  endfacet
  facet normal 0 0 1
    outer loop
      vertex -9.95 5.7 1.6
      vertex -9.95 -5.7 1.6
      vertex 9.95 5.7 1.6
    endloop
  endfacet
  facet normal 0 -1 0
    outer loop
      vertex -9.95 -5.7 1.11022e-016
      vertex 9.95 -5.7 1.11022e-016
      vertex 9.95 -5.7 1.6
    endloop
  endfacet
  facet normal 0 -1 0
    outer loop
      vertex -9.95 -5.7 1.6
      vertex -9.95 -5.7 1.11022e-016
      vertex 9.95 -5.7 1.6
    endloop
  endfacet
  facet normal 0 0 -1
    outer loop
      vertex -9.95 5.7 1.11022e-016
      vertex 9.95 5.7 1.11022e-016
      vertex -9.95 -5.7 1.11022e-016
    endloop
  endfacet
  facet normal 0 0 -1
    outer loop
      vertex -9.95 -5.7 1.11022e-016
      vertex 9.95 5.7 1.11022e-016
      vertex 9.95 -5.7 1.11022e-016
    endloop
  endfacet
  facet normal 0 1 0
    outer loop
      vertex -9.95 5.7 1.6
      vertex 9.95 5.7 1.6
      vertex -9.95 5.7 1.11022e-016
    endloop
  endfacet
  facet normal 0 1 0
    outer loop
      vertex -9.95 5.7 1.11022e-016
      vertex 9.95 5.7 1.6
      vertex 9.95 5.7 1.11022e-016
    endloop
  endfacet
  facet normal 1 0 0
    outer loop
      vertex 9.95 -5.7 1.11022e-016
      vertex 9.95 5.7 1.11022e-016
      vertex 9.95 5.7 1.6
    endloop
  endfacet
  facet normal 1 0 0
    outer loop
      vertex 9.95 -5.7 1.6
      vertex 9.95 -5.7 1.11022e-016
      vertex 9.95 5.7 1.6
    endloop
  endfacet
endsolid OpenSCAD_Model
