solid OpenSCAD_Model
  facet normal -1 0 0
    outer loop
      vertex -1.45 -0.65 1.45
      vertex -1.45 0.65 1.45
      vertex -1.45 -0.65 0
    endloop
  endfacet
  facet normal -1 0 0
    outer loop
      vertex -1.45 -0.65 0
      vertex -1.45 0.65 1.45
      vertex -1.45 0.65 0
    endloop
  endfacet
  facet normal 0 0 1
    outer loop
      vertex -1.45 -0.65 1.45
      vertex 1.45 -0.65 1.45
      vertex 1.45 0.65 1.45
    endloop
  endfacet
  facet normal 0 0 1
    outer loop
      vertex -1.45 0.65 1.45
      vertex -1.45 -0.65 1.45
      vertex 1.45 0.65 1.45
    endloop
  endfacet
  facet normal 0 -1 0
    outer loop
      vertex -1.45 -0.65 0
      vertex 1.45 -0.65 0
      vertex 1.45 -0.65 1.45
    endloop
  endfacet
  facet normal 0 -1 0
    outer loop
      vertex -1.45 -0.65 1.45
      vertex -1.45 -0.65 0
      vertex 1.45 -0.65 1.45
    endloop
  endfacet
  facet normal 0 0 -1
    outer loop
      vertex -1.45 0.65 0
      vertex 1.45 0.65 0
      vertex -1.45 -0.65 0
    endloop
  endfacet
  facet normal 0 0 -1
    outer loop
      vertex -1.45 -0.65 0
      vertex 1.45 0.65 0
      vertex 1.45 -0.65 0
    endloop
  endfacet
  facet normal 0 1 0
    outer loop
      vertex -1.45 0.65 1.45
      vertex 1.45 0.65 1.45
      vertex -1.45 0.65 0
    endloop
  endfacet
  facet normal 0 1 0
    outer loop
      vertex -1.45 0.65 0
      vertex 1.45 0.65 1.45
      vertex 1.45 0.65 0
    endloop
  endfacet
  facet normal 1 0 0
    outer loop
      vertex 1.45 -0.65 0
      vertex 1.45 0.65 0
      vertex 1.45 0.65 1.45
    endloop
  endfacet
  facet normal 1 0 0
    outer loop
      vertex 1.45 -0.65 1.45
      vertex 1.45 -0.65 0
      vertex 1.45 0.65 1.45
    endloop
  endfacet
endsolid OpenSCAD_Model
