solid OpenSCAD_Model
  facet normal -1 0 0
    outer loop
      vertex -1.45 -0.8 0.8
      vertex -1.45 0.8 0.8
      vertex -1.45 -0.8 5.55112e-017
    endloop
  endfacet
  facet normal -1 0 0
    outer loop
      vertex -1.45 -0.8 5.55112e-017
      vertex -1.45 0.8 0.8
      vertex -1.45 0.8 5.55112e-017
    endloop
  endfacet
  facet normal 0 0 1
    outer loop
      vertex -1.45 -0.8 0.8
      vertex 1.45 -0.8 0.8
      vertex 1.45 0.8 0.8
    endloop
  endfacet
  facet normal 0 0 1
    outer loop
      vertex -1.45 0.8 0.8
      vertex -1.45 -0.8 0.8
      vertex 1.45 0.8 0.8
    endloop
  endfacet
  facet normal 0 -1 0
    outer loop
      vertex -1.45 -0.8 5.55112e-017
      vertex 1.45 -0.8 5.55112e-017
      vertex 1.45 -0.8 0.8
    endloop
  endfacet
  facet normal 0 -1 0
    outer loop
      vertex -1.45 -0.8 0.8
      vertex -1.45 -0.8 5.55112e-017
      vertex 1.45 -0.8 0.8
    endloop
  endfacet
  facet normal 0 0 -1
    outer loop
      vertex -1.45 0.8 5.55112e-017
      vertex 1.45 0.8 5.55112e-017
      vertex -1.45 -0.8 5.55112e-017
    endloop
  endfacet
  facet normal 0 0 -1
    outer loop
      vertex -1.45 -0.8 5.55112e-017
      vertex 1.45 0.8 5.55112e-017
      vertex 1.45 -0.8 5.55112e-017
    endloop
  endfacet
  facet normal 0 1 0
    outer loop
      vertex -1.45 0.8 0.8
      vertex 1.45 0.8 0.8
      vertex -1.45 0.8 5.55112e-017
    endloop
  endfacet
  facet normal 0 1 0
    outer loop
      vertex -1.45 0.8 5.55112e-017
      vertex 1.45 0.8 0.8
      vertex 1.45 0.8 5.55112e-017
    endloop
  endfacet
  facet normal 1 0 0
    outer loop
      vertex 1.45 -0.8 5.55112e-017
      vertex 1.45 0.8 5.55112e-017
      vertex 1.45 0.8 0.8
    endloop
  endfacet
  facet normal 1 0 0
    outer loop
      vertex 1.45 -0.8 0.8
      vertex 1.45 -0.8 5.55112e-017
      vertex 1.45 0.8 0.8
    endloop
  endfacet
endsolid OpenSCAD_Model
