solid OpenSCAD_Model
  facet normal -1 0 0
    outer loop
      vertex -1.3 -0.85 0.54
      vertex -1.3 0.85 0.54
      vertex -1.3 -0.85 5.55112e-017
    endloop
  endfacet
  facet normal -1 0 0
    outer loop
      vertex -1.3 -0.85 5.55112e-017
      vertex -1.3 0.85 0.54
      vertex -1.3 0.85 5.55112e-017
    endloop
  endfacet
  facet normal 0 0 1
    outer loop
      vertex -1.3 -0.85 0.54
      vertex 1.3 -0.85 0.54
      vertex 1.3 0.85 0.54
    endloop
  endfacet
  facet normal 0 0 1
    outer loop
      vertex -1.3 0.85 0.54
      vertex -1.3 -0.85 0.54
      vertex 1.3 0.85 0.54
    endloop
  endfacet
  facet normal 0 -1 0
    outer loop
      vertex -1.3 -0.85 5.55112e-017
      vertex 1.3 -0.85 5.55112e-017
      vertex 1.3 -0.85 0.54
    endloop
  endfacet
  facet normal 0 -1 0
    outer loop
      vertex -1.3 -0.85 0.54
      vertex -1.3 -0.85 5.55112e-017
      vertex 1.3 -0.85 0.54
    endloop
  endfacet
  facet normal 0 0 -1
    outer loop
      vertex -1.3 0.85 5.55112e-017
      vertex 1.3 0.85 5.55112e-017
      vertex -1.3 -0.85 5.55112e-017
    endloop
  endfacet
  facet normal 0 0 -1
    outer loop
      vertex -1.3 -0.85 5.55112e-017
      vertex 1.3 0.85 5.55112e-017
      vertex 1.3 -0.85 5.55112e-017
    endloop
  endfacet
  facet normal 0 1 0
    outer loop
      vertex -1.3 0.85 0.54
      vertex 1.3 0.85 0.54
      vertex -1.3 0.85 5.55112e-017
    endloop
  endfacet
  facet normal 0 1 0
    outer loop
      vertex -1.3 0.85 5.55112e-017
      vertex 1.3 0.85 0.54
      vertex 1.3 0.85 5.55112e-017
    endloop
  endfacet
  facet normal 1 0 0
    outer loop
      vertex 1.3 -0.85 5.55112e-017
      vertex 1.3 0.85 5.55112e-017
      vertex 1.3 0.85 0.54
    endloop
  endfacet
  facet normal 1 0 0
    outer loop
      vertex 1.3 -0.85 0.54
      vertex 1.3 -0.85 5.55112e-017
      vertex 1.3 0.85 0.54
    endloop
  endfacet
endsolid OpenSCAD_Model
